# xmcd
#
# Track frame offsets: 
#        150
#        16340
#        32795
#        54085
#        72637
#        84740
#        108490
#        124050
#        143585
#        163752
#        184392
#        207412
#
# Disc length: 3037 seconds
#
# Revision: 3
# Processed by: cddbd v1.4b42PL0 Copyright (c) Steve Scherf et al.
# Submitted via: ExactAudioCopy v0.90a11
#
DISCID=ab0bdb0c
DTITLE=Beautiful South - 0898
DYEAR=1900
DGENRE=
TTITLE0=Old Red Eyes Is Back
TTITLE1=We Are Each Other
TTITLE2=The Rocking Chair
TTITLE3=We'll Deal With You Later
TTITLE4=Domino Man
TTITLE5=36D
TTITLE6=Here It Is Again
TTITLE7=Something That You Said
TTITLE8=I'm Your No.1 Fan
TTITLE9=Bell-Bottomed Tear
TTITLE10=You Play Glockenspiel, I'll Play Drums
TTITLE11=When I'm 84
EXTD=
EXTT0=
EXTT1=
EXTT2=
EXTT3=
EXTT4=
EXTT5=
EXTT6=
EXTT7=
EXTT8=
EXTT9=
EXTT10=
EXTT11=
PLAYORDER=
